<?xml version="1.0" encoding="UTF-8" standalone="no"?>
<!DOCTYPE svg PUBLIC "-//W3C//DTD SVG 1.1//EN" "http://www.w3.org/Graphics/SVG/1.1/DTD/svg11.dtd">
<svg width="100%" height="100%" viewBox="0 0 209 209" version="1.1" xmlns="http://www.w3.org/2000/svg" xmlns:xlink="http://www.w3.org/1999/xlink" xml:space="preserve" xmlns:serif="http://www.serif.com/" style="fill-rule:evenodd;clip-rule:evenodd;stroke-linejoin:round;stroke-miterlimit:2;">
    <g transform="matrix(1,0,0,1,-1208.32,-405.257)">
        <g id="icons8-adobe-photoshop.svg" transform="matrix(4.16667,0,0,4.16667,1312.49,509.424)">
            <g transform="matrix(1,0,0,1,-25,-25)">
                <path d="M6,4C4.9,4 4,4.9 4,6L4,44C4,45.1 4.9,46 6,46L44,46C45.1,46 46,45.1 46,44L46,6C46,4.9 45.1,4 44,4L6,4ZM18.58,14C20.57,14 22.261,14.48 23.391,15.57C24.411,16.59 24.949,18.161 24.949,20.051C24.949,22.031 24.471,23.371 23.641,24.461C22.491,26.061 20.471,26.859 18.551,26.859C18.141,26.859 17.821,26.86 17.461,26.83L17.461,36L15,36L15,14.42C15.99,14.16 17.14,14 18.58,14ZM18.98,15.641C18.4,15.641 17.92,15.701 17.6,15.801L17.6,24.41C17.89,24.44 18.18,24.471 18.59,24.471C20.99,24.471 22.619,22.87 22.619,19.83C22.619,17.62 21.73,15.641 18.98,15.641ZM31.711,20C32.981,20 33.9,20.391 34.57,20.801L33.9,22.67C33.27,22.25 32.61,21.961 31.75,21.961C30.39,21.961 29.689,22.919 29.689,23.949C29.689,24.979 30.09,25.589 31.68,26.619C33.54,27.779 35,29.219 35,31.369C35,34.489 32.81,36 30.15,36C28.99,36 27.7,35.65 27,35.1L27.631,33.24C28.201,33.59 29.191,34.039 30.221,34.039C31.651,34.039 32.58,33.169 32.58,31.789C32.58,30.599 32.15,29.77 30.52,28.74C28.43,27.42 27.301,26.071 27.301,24.311C27.301,21.771 29.221,20 31.711,20Z" style="fill-rule:nonzero;"/>
            </g>
        </g>
    </g>
</svg>
