<?xml version="1.0" encoding="UTF-8" standalone="no"?>
<!DOCTYPE svg PUBLIC "-//W3C//DTD SVG 1.1//EN" "http://www.w3.org/Graphics/SVG/1.1/DTD/svg11.dtd">
<svg width="100%" height="100%" viewBox="0 0 209 209" version="1.1" xmlns="http://www.w3.org/2000/svg" xmlns:xlink="http://www.w3.org/1999/xlink" xml:space="preserve" xmlns:serif="http://www.serif.com/" style="fill-rule:evenodd;clip-rule:evenodd;stroke-linejoin:round;stroke-miterlimit:2;">
    <g transform="matrix(1,0,0,1,-953.347,-405.257)">
        <g id="icons8-adobe-illustrator.svg" transform="matrix(4.16667,0,0,4.16667,1057.51,509.424)">
            <g transform="matrix(1,0,0,1,-25,-25)">
                <path d="M6,4C4.9,4 4,4.9 4,6L4,44C4,45.1 4.9,46 6,46L44,46C45.1,46 46,45.1 46,44L46,6C46,4.9 45.1,4 44,4L6,4ZM19.93,14L22.65,14L27.449,36L25.01,36L23.619,29.57L18.82,29.57L17.4,36L15,36L19.93,14ZM32.73,14C33.66,14 34.25,14.631 34.25,15.561C34.25,16.501 33.66,17.131 32.73,17.131L32.699,17.131C31.879,17.131 31.25,16.501 31.25,15.561C31.25,14.631 31.91,14 32.73,14ZM21.23,16.439C20.97,18.069 20.65,19.93 20.33,21.4L19.23,27L23.32,27L22.189,21.369C21.869,19.829 21.58,18.039 21.32,16.439L21.23,16.439ZM31.5,19L34,19L34,36L31.5,36L31.5,19Z" style="fill-rule:nonzero;"/>
            </g>
        </g>
    </g>
</svg>
