<?xml version="1.0" encoding="UTF-8" standalone="no"?>
<!DOCTYPE svg PUBLIC "-//W3C//DTD SVG 1.1//EN" "http://www.w3.org/Graphics/SVG/1.1/DTD/svg11.dtd">
<svg width="100%" height="100%" viewBox="0 0 209 209" version="1.1" xmlns="http://www.w3.org/2000/svg" xmlns:xlink="http://www.w3.org/1999/xlink" xml:space="preserve" xmlns:serif="http://www.serif.com/" style="fill-rule:evenodd;clip-rule:evenodd;stroke-linejoin:round;stroke-miterlimit:2;">
    <g transform="matrix(1,0,0,1,-1473.64,-405.257)">
        <g id="icons8-affinity-designer.svg" transform="matrix(4.16667,0,0,4.16667,1577.81,509.424)">
            <g transform="matrix(1,0,0,1,-25,-25)">
                <path d="M19.25,30.76L28.28,45.99L14,45.99C12.85,45.99 11.75,45.8 10.72,45.43L19.25,30.76ZM30.35,29L20.28,29L25.2,20.53L30.35,29ZM24.64,3.99L4.29,38.4C4.27,38.33 4.26,38.25 4.24,38.18C4.08,37.48 4,36.74 4,35.99L4,13.99C4,8.48 8.49,3.99 14,3.99L24.64,3.99ZM32.52,3.99L8.91,44.59C7.36,43.67 6.09,42.35 5.22,40.76L27.04,3.99L32.52,3.99ZM46,13.99L46,29L32.69,29L26.34,18.57L34.9,3.99L36,3.99C41.51,3.99 46,8.48 46,13.99ZM21.72,31L46,31L46,35.99C46,41.5 41.51,45.99 36,45.99L30.6,45.99L21.72,31Z" style="fill-rule:nonzero;"/>
            </g>
        </g>
    </g>
</svg>
