<?xml version="1.0" encoding="UTF-8" standalone="no"?>
<!DOCTYPE svg PUBLIC "-//W3C//DTD SVG 1.1//EN" "http://www.w3.org/Graphics/SVG/1.1/DTD/svg11.dtd">
<svg width="100%" height="100%" viewBox="0 0 209 209" version="1.1" xmlns="http://www.w3.org/2000/svg" xmlns:xlink="http://www.w3.org/1999/xlink" xml:space="preserve" xmlns:serif="http://www.serif.com/" style="fill-rule:evenodd;clip-rule:evenodd;stroke-linejoin:round;stroke-miterlimit:2;">
    <g transform="matrix(1,0,0,1,-1971.95,-405.257)">
        <g id="icons8-affinity-publisher.svg" transform="matrix(4.16667,0,0,4.16667,2076.12,509.424)">
            <g transform="matrix(1,0,0,1,-25,-25)">
                <path d="M34.5,45.99L28.63,45.99L16.78,25.8L19.76,20.75L34.5,45.99ZM41.56,44.3C40.18,45.23 38.55,45.82 36.79,45.96L35.64,43.99L20.92,18.77L24,13.54L40.57,42.56L41.56,44.3ZM45.8,37.96L45.8,37.97C45.41,39.9 44.46,41.64 43.12,43L42.09,41.19L25.17,11.55L27.94,6.87L45.8,37.96ZM27.31,3.99L5.43,41.13C4.52,39.62 4,37.86 4,35.99L4,13.99C4,8.48 8.49,3.99 14,3.99L27.31,3.99ZM46,13.99L46,34.28L28.6,3.99L36,3.99C41.51,3.99 46,8.48 46,13.99ZM26.31,45.99L14,45.99C11.14,45.99 8.56,44.78 6.73,42.85L7.79,41.05L15.62,27.77L26.31,45.99Z" style="fill-rule:nonzero;"/>
            </g>
        </g>
    </g>
</svg>
