<?xml version="1.0" encoding="UTF-8" standalone="no"?>
<!DOCTYPE svg PUBLIC "-//W3C//DTD SVG 1.1//EN" "http://www.w3.org/Graphics/SVG/1.1/DTD/svg11.dtd">
<svg width="100%" height="100%" viewBox="0 0 209 209" version="1.1" xmlns="http://www.w3.org/2000/svg" xmlns:xlink="http://www.w3.org/1999/xlink" xml:space="preserve" xmlns:serif="http://www.serif.com/" style="fill-rule:evenodd;clip-rule:evenodd;stroke-linejoin:round;stroke-miterlimit:2;">
    <g transform="matrix(1,0,0,1,-409.054,-405.257)">
        <g id="icons8-autocad-logo--1-.svg" serif:id="icons8-autocad-logo (1).svg" transform="matrix(4.16667,0,0,4.16667,513.22,509.424)">
            <g transform="matrix(1,0,0,1,-25,-25)">
                <path d="M23.813,3.008L6.898,34.387L19.293,29.074L23.813,3.008ZM26.188,3.008L29.93,24.516L36.293,21.785L26.188,3.008ZM25,7.844L21.484,28.133L28.043,25.324L25,7.844ZM37.246,23.551L30.281,26.535L32.449,39L45.594,39L37.246,23.551ZM28.391,27.348L21.078,30.484L19.598,39L30.422,39L28.391,27.348ZM18.883,31.422L10.102,35.188L10.422,39L17.566,39L18.883,31.422ZM8.164,36.016L5.367,37.215L4.406,39L8.414,39L8.164,36.016ZM4.531,41L9.031,46.398L8.578,41L4.531,41ZM10.59,41L11.102,47.168L16.031,47.871L17.223,41L10.59,41ZM32.797,41L33.988,47.871L39.172,47.129L38.152,41L32.797,41ZM40.18,41L41.063,46.285L45.469,41L40.18,41Z" style="fill-rule:nonzero;"/>
            </g>
        </g>
    </g>
</svg>
