<?xml version="1.0" encoding="UTF-8" standalone="no"?>
<!DOCTYPE svg PUBLIC "-//W3C//DTD SVG 1.1//EN" "http://www.w3.org/Graphics/SVG/1.1/DTD/svg11.dtd">
<svg width="100%" height="100%" viewBox="0 0 211 174" version="1.1" xmlns="http://www.w3.org/2000/svg" xmlns:xlink="http://www.w3.org/1999/xlink" xml:space="preserve" xmlns:serif="http://www.serif.com/" style="fill-rule:evenodd;clip-rule:evenodd;stroke-linejoin:round;stroke-miterlimit:2;">
    <g transform="matrix(1,0,0,1,-2913.67,-421.424)">
        <g id="noun-clay-2058597.svg" transform="matrix(2.53497,0,0,2.53497,3020.14,539.452)">
            <clipPath id="_clip1">
                <rect x="-42" y="-46.56" width="83.04" height="68.64"/>
            </clipPath>
            <g clip-path="url(#_clip1)">
                <g transform="matrix(1,0,0,1,-48,-60)">
                    <path d="M19.756,44.112C20.306,43.916 20.62,43.533 20.744,42.908C21.386,39.664 18.316,38.728 14.836,37.986C14.19,37.849 13.634,37.73 13.235,37.586C11.241,36.867 8.985,35.027 8.891,34.949L9.842,33.789C9.863,33.807 11.995,35.544 13.744,36.175C13.898,36.231 14.108,36.286 14.355,36.344C14.355,36.113 14.36,35.909 14.369,35.739C13.36,35.125 12.36,34.429 11.436,33.758C11.247,33.621 11.099,33.513 11,33.445C10.828,33.327 10.656,33.167 10.482,32.974C9.018,33.376 7.128,34.153 6.794,34.902C5.908,36.896 6.102,38.383 7.387,39.448C9.027,40.806 16.756,45.184 19.756,44.112Z" style="fill-rule:nonzero;"/>
                    <path d="M28.866,53.757C28.83,52.776 28.199,51.966 27.429,51.915C25.816,51.808 24.21,52.057 22.794,52.277C22.049,52.393 21.346,52.502 20.73,52.544C18.606,52.683 16.802,51.816 15.656,50.097C15.629,50.055 15.601,50.014 15.575,49.972C14.433,50.894 12.278,52.971 13.427,54.761C14.797,56.898 18.836,57.46 25.775,56.48C27.763,56.2 28.919,55.182 28.866,53.757Z" style="fill-rule:nonzero;"/>
                    <path d="M60.007,52.638L60.043,52.29C60.054,52.181 61.134,41.318 58.498,35.06C55.158,27.127 50.554,19.169 49.023,18.686C48.109,18.397 47.002,17.56 45.721,16.589C43.844,15.169 41.511,13.398 40.13,13.829C39.679,13.97 39.541,14.212 39.471,14.408C39.094,15.461 39.961,17.796 41.733,20.502C42.479,21.64 44.068,22.229 45.47,22.748C46.909,23.281 48.153,23.741 48.502,24.79C48.611,25.119 49.111,25.915 49.64,26.757C51.32,29.431 54.131,33.907 54.197,38.128C54.235,40.511 54.128,42.191 54.043,43.541C53.933,45.278 53.86,46.426 54.179,47.835C54.786,50.521 54.275,55.161 52.682,57.351C51.176,59.422 46.889,60.879 45.034,61.165C43.284,61.434 37.582,61.263 33.737,60.826C30.583,60.469 29.613,60.475 28.013,60.484L27.051,60.488C25.72,60.488 24.063,59.69 22.792,58.996C23.294,59.6 23.849,60.159 24.231,60.362C24.88,60.706 25.804,61.152 26.702,61.586C27.836,62.134 28.908,62.652 29.408,62.952C30.639,63.691 43.237,70.099 49.554,69.788L49.631,71.286C49.454,71.295 49.273,71.3 49.088,71.3C48.958,71.3 48.821,71.293 48.688,71.289L58.414,82.235L88.729,82.235L60.007,52.638Z" style="fill-rule:nonzero;"/>
                    <path d="M20.614,26.83C21.904,26.615 22.868,26.039 23.403,25.165C23.92,24.32 24.021,23.218 23.679,22.141C22.942,19.815 22.082,16.839 22.074,16.809L23.515,16.393C23.52,16.413 23.897,17.718 24.364,19.266L26.561,18.452L26.768,18.493C26.768,18.493 29.983,19.125 30.5,19.24L30.629,19.27C30.77,19.304 30.905,19.332 31.179,19.232C27.336,16.597 23.53,14.558 22.743,14.776C21.214,15.462 18.214,18.474 18.172,19.614C18.081,22.168 18.393,25.518 19.574,26.555C19.867,26.812 20.198,26.899 20.614,26.83Z" style="fill-rule:nonzero;"/>
                    <path d="M16.261,36.765C16.127,36.702 15.993,36.634 15.858,36.566C15.858,36.601 15.861,36.638 15.862,36.674C15.993,36.704 16.125,36.733 16.261,36.765Z" style="fill-rule:nonzero;"/>
                    <path d="M21.681,36.328C21.329,36.971 20.766,37.395 20.052,37.555C19.827,37.605 19.592,37.629 19.346,37.629C19.19,37.629 19.021,37.598 18.858,37.579C21.002,38.487 22.832,40.086 22.216,43.199C21.989,44.346 21.312,45.151 20.259,45.525C19.802,45.688 19.28,45.761 18.712,45.761C17.712,45.761 16.57,45.532 15.391,45.171C15.597,46.273 16.032,47.955 16.905,49.265C17.764,50.555 19.014,51.156 20.631,51.047C21.181,51.01 21.853,50.906 22.565,50.796C24.058,50.564 25.754,50.303 27.53,50.419C29.081,50.523 30.301,51.934 30.366,53.702C30.428,55.375 29.318,57.496 25.986,57.967C25.458,58.042 24.948,58.106 24.451,58.163C25.357,58.604 26.331,58.987 27.052,58.987L28.004,58.983C29.663,58.976 30.664,58.966 33.907,59.335C37.584,59.753 43.186,59.933 44.807,59.682C46.507,59.42 50.295,58.085 51.471,56.469C52.674,54.816 53.291,50.703 52.718,48.166C52.352,46.546 52.434,45.246 52.548,43.446C52.632,42.123 52.736,40.476 52.699,38.152C52.64,34.351 49.969,30.097 48.372,27.556C47.719,26.516 47.247,25.765 47.08,25.265C46.958,24.898 45.845,24.486 44.95,24.155C43.411,23.585 41.496,22.876 40.479,21.325C40.266,21 40.031,20.625 39.793,20.22C37.684,19.583 35.119,19.116 34.433,19.447C33.872,19.716 33.425,19.848 33.058,19.904C31.634,20.827 31.032,20.91 30.276,20.727L30.175,20.703C29.742,20.607 27.401,20.145 26.686,20.004L24.802,20.702C24.906,21.036 25.009,21.368 25.11,21.686C25.584,23.178 25.428,24.731 24.684,25.947C24.148,26.823 23.049,27.944 20.862,28.308C20.691,28.337 20.521,28.351 20.356,28.351C19.695,28.351 19.09,28.123 18.586,27.681C18.465,27.575 18.351,27.456 18.244,27.329C18.153,27.566 18.073,27.877 18.02,28.261C18.237,28.441 18.451,28.608 18.657,28.754C22.932,31.769 22.662,34.537 21.681,36.328Z" style="fill-rule:nonzero;"/>
                    <path d="M10.111,29.736C10.691,30.704 11.413,31.909 11.848,32.207C11.954,32.28 12.115,32.396 12.319,32.544C15.95,35.185 18.441,36.382 19.724,36.09C20.021,36.024 20.22,35.874 20.366,35.607C20.738,34.926 21.871,32.855 17.792,29.978C16.151,28.821 13.438,25.963 13.09,24.293L14.559,23.986C14.696,24.643 15.64,25.917 16.747,27.065C16.935,26.47 17.185,26.062 17.404,25.789C17.239,25.339 17.107,24.858 17.005,24.362C15.128,23.266 12.259,22.133 11.208,22.823C9.773,23.766 8.242,25.785 8.173,26.823C8.165,26.951 8.185,27.018 8.201,27.032C8.808,27.56 9.441,28.617 10.111,29.736Z" style="fill-rule:nonzero;"/>
                </g>
            </g>
        </g>
    </g>
</svg>
