<?xml version="1.0" encoding="UTF-8" standalone="no"?>
<!DOCTYPE svg PUBLIC "-//W3C//DTD SVG 1.1//EN" "http://www.w3.org/Graphics/SVG/1.1/DTD/svg11.dtd">
<svg width="100%" height="100%" viewBox="0 0 206 175" version="1.1" xmlns="http://www.w3.org/2000/svg" xmlns:xlink="http://www.w3.org/1999/xlink" xml:space="preserve" xmlns:serif="http://www.serif.com/" style="fill-rule:evenodd;clip-rule:evenodd;stroke-linejoin:round;stroke-miterlimit:2;">
    <g transform="matrix(1,0,0,1,-3358.93,-421.424)">
        <g id="noun-stand-mixer-1206530.svg" transform="matrix(2.05496,0,0,2.05496,3461.68,534.57)">
            <g transform="matrix(1,0,0,1,-50,-62.5)">
                <path d="M90.267,47.177C89.936,46.855 89.482,46.647 88.981,46.647L66.774,46.647L66.774,38.245C67.196,38.126 67.603,37.975 67.985,37.776C69.675,36.931 70.934,35.374 71.405,33.503C73.768,32.928 75.887,31.727 77.556,30.058C78.814,28.819 79.835,27.315 80.507,25.632L82.484,25.632C83.836,25.632 85.066,25.083 85.946,24.204C86.835,23.315 87.384,22.095 87.384,20.742C87.384,18.028 85.19,15.843 82.485,15.843L80.508,15.843C78.559,11 73.83,7.585 68.297,7.585L23.4,7.585C22.331,7.585 21.291,7.708 20.298,7.954C18.473,8.399 16.789,9.221 15.342,10.337C14.907,10.678 14.481,11.046 14.094,11.434C11.72,13.817 10.245,17.099 10.245,20.741C10.245,26.936 14.529,32.128 20.299,33.519C21.229,33.749 22.201,33.867 23.198,33.882L23.174,33.888L23.174,45.815C23.174,57.704 19.656,72.118 17.622,77.424C15.276,83.562 9.204,87.033 9.204,87.033C9.204,88.225 9.592,89.322 10.244,90.211C10.414,90.429 10.594,90.646 10.783,90.835C11.757,91.809 13.1,92.415 14.585,92.415L83.222,92.415C84.537,92.415 85.634,91.469 85.861,90.211C85.889,90.05 85.908,89.889 85.908,89.719C85.908,88.981 85.605,88.3 85.123,87.818C84.631,87.336 83.969,87.033 83.222,87.033L74.727,87.033C75.417,87.033 75.976,86.475 75.976,85.784C75.976,85.094 75.418,84.536 74.727,84.536L74.273,84.536L74.273,82.284C74.933,82.02 75.582,81.733 76.212,81.414C77.073,80.988 77.905,80.506 78.699,79.976C80.941,78.491 82.917,76.637 84.554,74.519C87.713,70.414 89.586,65.269 89.586,59.689L89.586,50.158C90.29,49.908 90.797,49.244 90.797,48.463C90.797,47.962 90.589,47.508 90.267,47.177ZM56.91,16.504C57.733,16.504 58.471,16.901 58.915,17.525C59.227,17.941 59.407,18.452 59.407,19C59.407,20.381 58.282,21.497 56.91,21.497C55.709,21.497 54.706,20.646 54.46,19.511C54.432,19.35 54.413,19.18 54.413,19C54.413,17.62 55.529,16.504 56.91,16.504ZM44.255,16.504C45.503,16.504 46.544,17.421 46.724,18.623C46.743,18.746 46.752,18.869 46.752,19.001C46.752,20.382 45.636,21.498 44.255,21.498C43.11,21.498 42.146,20.722 41.862,19.673C41.796,19.455 41.767,19.238 41.767,19.001C41.767,17.62 42.883,16.504 44.255,16.504ZM63.247,46.647L41,46.647C39.997,46.647 39.193,47.46 39.193,48.463C39.193,48.955 39.392,49.409 39.723,49.74C39.908,49.93 40.139,50.07 40.395,50.16L40.395,59.69C40.395,66.415 43.119,72.487 47.517,76.894C49.831,79.208 52.614,81.052 55.708,82.287L55.708,84.537L55.254,84.537C54.564,84.537 54.006,85.095 54.006,85.785C54.006,86.475 54.564,87.034 55.254,87.034L52.21,87.034C43.811,79.619 39.905,71.173 38.212,66.245C37.418,63.947 37.049,61.526 37.049,59.095L37.049,42.542C37.049,37.877 41.119,35.229 44.216,33.888L58.723,33.888C59.393,36.001 61.099,37.651 63.247,38.247L63.247,46.647Z" style="fill-rule:nonzero;"/>
            </g>
        </g>
    </g>
</svg>
