<?xml version="1.0" encoding="UTF-8" standalone="no"?>
<!DOCTYPE svg PUBLIC "-//W3C//DTD SVG 1.1//EN" "http://www.w3.org/Graphics/SVG/1.1/DTD/svg11.dtd">
<svg width="100%" height="100%" viewBox="0 0 218 218" version="1.1" xmlns="http://www.w3.org/2000/svg" xmlns:xlink="http://www.w3.org/1999/xlink" xml:space="preserve" xmlns:serif="http://www.serif.com/" style="fill-rule:evenodd;clip-rule:evenodd;stroke-linejoin:round;stroke-miterlimit:2;">
    <g transform="matrix(1,0,0,1,-2441.33,-400.257)">
        <g id="icons8-rhinoceros-6.svg" transform="matrix(4.34667,0,0,4.34667,2550,508.924)">
            <g transform="matrix(1,0,0,1,-25,-25)">
                <path d="M14,5C9.029,5 5,9.029 5,14L5,36C5,40.971 9.029,45 14,45L36,45C40.971,45 45,40.971 45,36L45,14C45,9.029 40.971,5 36,5L14,5ZM15.969,11.063C17.479,11.015 18.682,11.57 18.682,13.355C18.682,17.437 14.912,23.406 14.912,23.406L16.797,24.662C16.797,24.662 22.135,19.166 21.193,12.885C22.901,13.616 26.685,17.655 26.664,20.611C24.775,22.765 21.824,24.958 18.93,26.35L18.682,26.547C18.682,26.547 19.19,27.489 19.592,28.877C19.962,30.153 20.238,31.959 19.938,33.611C14.285,24.189 6.746,26.703 6.746,26.703C6.432,26.389 5.805,25.291 5.805,23.721C5.805,22.119 6.433,21.051 7.375,21.051C8.317,21.051 11.457,21.836 11.771,22.15C12.085,20.58 13.342,15.712 10.516,12.885C11.575,12.178 14.027,11.123 15.969,11.063ZM27.52,22.635C27.887,22.871 28.104,23.194 28.104,23.564C28.104,26.068 29.988,27.162 31.244,27.162C32.5,27.162 32.927,26.658 34.385,26.076C35.955,25.45 33.444,28.907 32.502,29.846C35.014,32.35 41.294,27.02 43.807,24.193C43.805,29.826 35.326,34.362 35.012,35.301C34.836,35.827 34.167,38.115 33.117,39.482C33.097,39.152 33.033,38.667 32.813,39.109C32.499,39.737 31.871,39.11 31.557,38.168C31.243,37.226 32.499,36.598 32.813,38.168C33.441,37.226 33.125,35.342 31.869,35.342C30.299,35.342 30.928,37.539 30.928,37.539C30.928,37.539 30.318,37.244 29.672,36.912C31.26,39.129 31.372,39.905 30.928,40.053L30.5,40.154C30.333,40.031 30.161,39.877 29.986,39.684C27.16,36.554 24.334,35.495 21.822,34.869C22.116,33.989 22.2,32.863 22.178,31.816C22.561,33.014 25.576,34.277 26.219,32.83C27.475,30.004 29.673,30.318 30.615,30.318C27.474,28.748 26.22,31.26 25.592,31.574C24.964,31.888 24.021,30.946 23.393,30.318C22.592,29.517 23.079,29.062 23.707,28.434C21.985,28.434 21.163,28.07 20.828,27.629C23.295,26.299 25.725,24.485 27.52,22.635ZM24.334,29.086C24.18,29.086 24.024,29.144 23.906,29.262C23.67,29.498 23.67,29.879 23.906,30.115L24.535,30.742C24.653,30.86 24.807,30.92 24.961,30.92C25.115,30.92 25.27,30.86 25.387,30.742C25.623,30.506 25.623,30.127 25.387,29.891L24.76,29.262C24.642,29.144 24.488,29.086 24.334,29.086Z" style="fill-rule:nonzero;"/>
            </g>
        </g>
    </g>
</svg>
