<?xml version="1.0" encoding="UTF-8" standalone="no"?>
<!DOCTYPE svg PUBLIC "-//W3C//DTD SVG 1.1//EN" "http://www.w3.org/Graphics/SVG/1.1/DTD/svg11.dtd">
<svg width="100%" height="100%" viewBox="0 0 209 209" version="1.1" xmlns="http://www.w3.org/2000/svg" xmlns:xlink="http://www.w3.org/1999/xlink" xml:space="preserve" xmlns:serif="http://www.serif.com/" style="fill-rule:evenodd;clip-rule:evenodd;stroke-linejoin:round;stroke-miterlimit:2;">
    <g transform="matrix(1,0,0,1,-692.583,-405.257)">
        <g id="icons8-google-sketchup.svg" transform="matrix(4.16667,0,0,4.16667,796.749,509.424)">
            <g transform="matrix(1,0,0,1,-25,-25)">
                <path d="M31.48,1.949L3.859,5.852L7.41,28.953L13.547,48.242L42.813,39.473L46.063,13.258L31.48,1.949ZM13.398,37L11.898,32L20.898,30.199L23.301,34.598L13.398,37ZM22.5,26.801L20.102,22.801L11.801,24.5L10,20.398L26.199,17.602L32,24.699L22.5,26.801ZM31.953,15.309L26.277,9.133L6.84,12.09L6.141,7.551L30.922,4.051L42.66,13.152L31.953,15.309Z" style="fill-rule:nonzero;"/>
            </g>
        </g>
    </g>
</svg>
