<?xml version="1.0" encoding="UTF-8" standalone="no"?>
<!DOCTYPE svg PUBLIC "-//W3C//DTD SVG 1.1//EN" "http://www.w3.org/Graphics/SVG/1.1/DTD/svg11.dtd">
<svg width="100%" height="100%" viewBox="0 0 206 209" version="1.1" xmlns="http://www.w3.org/2000/svg" xmlns:xlink="http://www.w3.org/1999/xlink" xml:space="preserve" xmlns:serif="http://www.serif.com/" style="fill-rule:evenodd;clip-rule:evenodd;stroke-linejoin:round;stroke-miterlimit:2;">
    <g transform="matrix(1,0,0,1,-2220.74,-405.257)">
        <g id="Twinmotion.svg" transform="matrix(2.34712,0,0,2.34712,2323.12,554.137)">
            <clipPath id="_clip1">
                <rect x="-43.62" y="-63.431" width="87.486" height="88.761"/>
            </clipPath>
            <g clip-path="url(#_clip1)">
                <g transform="matrix(1,0,0,1,-154.5,-114)">
                    <path d="M154.9,94.7L116.7,94.7C116.5,111.4 127.4,126.3 143.4,131.2C145,131.7 146.6,132.1 148.3,132.3L154.9,94.7Z" style="fill-rule:nonzero;"/>
                    <path d="M171.4,94.7L173.9,80.8L189.4,80.8C181.5,61.5 159.5,52.3 140.2,60.2C130.8,64 123.4,71.5 119.6,80.8L171.5,80.8L162.5,132C175.8,129.1 186.6,119.2 190.6,106.2C191.7,102.5 192.3,98.6 192.2,94.8L171.4,94.8L171.4,94.7Z" style="fill-rule:nonzero;"/>
                    <rect x="62" y="50" width="185" height="128" style="fill:none;"/>
                </g>
            </g>
        </g>
    </g>
</svg>
