<?xml version="1.0" encoding="UTF-8" standalone="no"?>
<!DOCTYPE svg PUBLIC "-//W3C//DTD SVG 1.1//EN" "http://www.w3.org/Graphics/SVG/1.1/DTD/svg11.dtd">
<svg width="100%" height="100%" viewBox="0 0 214 174" version="1.1" xmlns="http://www.w3.org/2000/svg" xmlns:xlink="http://www.w3.org/1999/xlink" xml:space="preserve" xmlns:serif="http://www.serif.com/" style="fill-rule:evenodd;clip-rule:evenodd;stroke-linejoin:round;stroke-miterlimit:2;">
    <g transform="matrix(1,0,0,1,-3651.53,-421.424)">
        <g id="noun-whisk-3840978.svg" transform="matrix(2.1397,0,0,2.1397,3758.52,536.668)">
            <g transform="matrix(1,0,0,1,-50,-62.5)">
                <path d="M86.961,13.562C86.886,13.472 86.811,13.39 86.737,13.316C86.664,13.243 86.582,13.168 86.493,13.094C82.895,9.608 78.979,8.303 74.835,9.251C60.734,12.474 48.443,41.802 44.739,51.485C42.857,51.302 40.729,52.286 38.943,54.071L13.173,77.132C8.587,81.014 10.481,84.189 13.173,86.881C15.865,89.573 19.343,91.206 22.922,86.881L45.983,61.111C47.768,59.325 48.753,57.196 48.569,55.315C58.252,51.611 87.579,39.32 90.803,25.218C91.749,21.079 90.446,17.16 86.961,13.562ZM84.821,16.206C84.371,21.694 66.923,36.646 52.199,47.854C63.407,33.131 78.359,15.682 83.848,15.232C83.905,15.228 83.958,15.225 84.008,15.225C84.404,15.225 84.545,15.366 84.616,15.437C84.696,15.517 84.863,15.685 84.821,16.206ZM75.505,12.175C76.154,12.027 76.795,11.952 77.428,11.952C78.739,11.952 80.017,12.281 81.275,12.926C73.248,16.544 59.235,33.712 50.726,44.839C52.058,41.797 53.658,38.364 55.468,34.898C62.505,21.42 69.434,13.562 75.505,12.175ZM87.878,24.549C86.491,30.621 78.634,37.549 65.155,44.586C61.688,46.396 58.254,47.997 55.212,49.329C66.343,40.818 83.521,26.796 87.131,18.77C88.09,20.637 88.335,22.55 87.878,24.549Z" style="fill-rule:nonzero;"/>
            </g>
        </g>
    </g>
</svg>
